<?xml version="1.0" encoding="UTF-8"?>

<svg version="1.2" baseProfile="tiny" width="151.37mm" height="54.07mm" viewBox="1700 6200 15137 5407" preserveAspectRatio="xMidYMid" fill-rule="evenodd" stroke-width="28.222" stroke-linejoin="round" xmlns="http://www.w3.org/2000/svg" xmlns:ooo="http://xml.openoffice.org/svg/export" xmlns:xlink="http://www.w3.org/1999/xlink" xml:space="preserve">
 <defs class="ClipPathGroup">
  <clipPath id="presentation_clip_path" clipPathUnits="userSpaceOnUse">
   <rect x="1700" y="6200" width="15137" height="5407"/>
  </clipPath>
 </defs>
 <defs class="TextShapeIndex">
  <g ooo:slide="id1" ooo:id-list="id3 id4"/>
 </defs>
 <defs class="EmbeddedBulletChars">
  <g id="bullet-char-template(57356)" transform="scale(0.00048828125,-0.00048828125)">
   <path d="M 580,1141 L 1163,571 580,0 -4,571 580,1141 Z"/>
  </g>
  <g id="bullet-char-template(57354)" transform="scale(0.00048828125,-0.00048828125)">
   <path d="M 8,1128 L 1137,1128 1137,0 8,0 8,1128 Z"/>
  </g>
  <g id="bullet-char-template(10146)" transform="scale(0.00048828125,-0.00048828125)">
   <path d="M 174,0 L 602,739 174,1481 1456,739 174,0 Z M 1358,739 L 309,1346 659,739 1358,739 Z"/>
  </g>
  <g id="bullet-char-template(10132)" transform="scale(0.00048828125,-0.00048828125)">
   <path d="M 2015,739 L 1276,0 717,0 1260,543 174,543 174,936 1260,936 717,1481 1274,1481 2015,739 Z"/>
  </g>
  <g id="bullet-char-template(10007)" transform="scale(0.00048828125,-0.00048828125)">
   <path d="M 0,-2 C -7,14 -16,27 -25,37 L 356,567 C 262,823 215,952 215,954 215,979 228,992 255,992 264,992 276,990 289,987 310,991 331,999 354,1012 L 381,999 492,748 772,1049 836,1024 860,1049 C 881,1039 901,1025 922,1006 886,937 835,863 770,784 769,783 710,716 594,584 L 774,223 C 774,196 753,168 711,139 L 727,119 C 717,90 699,76 672,76 641,76 570,178 457,381 L 164,-76 C 142,-110 111,-127 72,-127 30,-127 9,-110 8,-76 1,-67 -2,-52 -2,-32 -2,-23 -1,-13 0,-2 Z"/>
  </g>
  <g id="bullet-char-template(10004)" transform="scale(0.00048828125,-0.00048828125)">
   <path d="M 285,-33 C 182,-33 111,30 74,156 52,228 41,333 41,471 41,549 55,616 82,672 116,743 169,778 240,778 293,778 328,747 346,684 L 369,508 C 377,444 397,411 428,410 L 1163,1116 C 1174,1127 1196,1133 1229,1133 1271,1133 1292,1118 1292,1087 L 1292,965 C 1292,929 1282,901 1262,881 L 442,47 C 390,-6 338,-33 285,-33 Z"/>
  </g>
  <g id="bullet-char-template(9679)" transform="scale(0.00048828125,-0.00048828125)">
   <path d="M 813,0 C 632,0 489,54 383,161 276,268 223,411 223,592 223,773 276,916 383,1023 489,1130 632,1184 813,1184 992,1184 1136,1130 1245,1023 1353,916 1407,772 1407,592 1407,412 1353,268 1245,161 1136,54 992,0 813,0 Z"/>
  </g>
  <g id="bullet-char-template(8226)" transform="scale(0.00048828125,-0.00048828125)">
   <path d="M 346,457 C 273,457 209,483 155,535 101,586 74,649 74,723 74,796 101,859 155,911 209,963 273,989 346,989 419,989 480,963 531,910 582,859 608,796 608,723 608,648 583,586 532,535 482,483 420,457 346,457 Z"/>
  </g>
  <g id="bullet-char-template(8211)" transform="scale(0.00048828125,-0.00048828125)">
   <path d="M -4,459 L 1135,459 1135,606 -4,606 -4,459 Z"/>
  </g>
 </defs>
 <defs class="TextEmbeddedBitmaps"/>
 <g class="SlideGroup">
  <g>
   <g id="id1" class="Slide" clip-path="url(#presentation_clip_path)">
    <g class="Page">
     <g class="Group">
      <g class="com.sun.star.drawing.ClosedBezierShape">
       <g id="id3">
        <path fill="rgb(76,23,85)" stroke="none" d="M 3570,8487 L 3573,6331 4463,6331 4463,8376 C 4463,8950 4406,9506 3898,9881 2974,10558 1700,9845 1700,8736 1700,7897 2279,7332 3114,7332 3161,7332 3207,7331 3253,7340 L 3247,8203 C 2871,8110 2548,8321 2548,8737 2548,9033 2770,9301 3077,9301 3582,9301 3570,8871 3570,8487 Z M 3570,8487 L 3570,8487 Z M 4773,8720 C 4773,7204 6852,6754 7433,8179 7645,8701 7531,9324 7134,9726 6252,10614 4773,9950 4773,8720 Z M 4773,8720 L 4773,8720 Z M 5602,8714 C 5602,9512 6710,9516 6710,8714 6710,7915 5602,7922 5602,8714 Z M 5602,8714 L 5602,8714 Z M 7876,10091 L 7876,7355 8780,7355 8783,7797 C 8842,7742 8964,7529 9099,7451 9270,7352 9481,7355 9672,7355 L 9672,8185 C 9373,8175 9150,8235 8993,8374 8851,8498 8822,8563 8822,8866 L 8822,10091 7876,10091 Z M 7876,10091 L 7876,10091 Z M 10057,10091 L 10057,9309 C 10167,9309 11193,9410 11037,9146 11029,9132 11014,9117 10991,9104 10591,8875 10052,8615 10052,8085 10052,7551 10523,7355 10989,7355 L 12021,7355 12021,8081 C 11922,8081 11228,8033 11177,8095 11035,8265 11775,8671 11875,8765 12353,9219 12163,9918 11529,10055 11091,10155 10493,10091 10057,10091 Z M 10057,10091 L 10057,10091 Z M 15191,9480 C 14639,10037 13810,10374 13079,9952 11842,9216 12384,7300 13806,7300 14480,7300 14977,7737 15207,8348 L 13748,9130 13454,8582 14285,8152 C 14058,7903 13584,7925 13384,8192 13054,8635 13294,9357 13891,9357 14221,9357 14506,9172 14713,8925 L 15191,9480 Z M 15191,9480 L 15191,9480 Z M 14008,6569 C 14008,6079 14761,6076 14761,6569 14761,7065 14008,7059 14008,6569 Z M 14008,6569 L 14008,6569 Z M 12824,6569 C 12824,6080 13578,6075 13578,6569 13578,7067 12824,7058 12824,6569 Z M 12824,6569 L 12824,6569 Z M 15473,6606 L 16299,6606 16299,7355 16837,7355 16837,8009 16299,8009 16299,8900 C 16299,9206 16623,9140 16837,9140 L 16837,10091 C 16044,10091 15473,9895 15473,8987 L 15473,6606 Z"/>
       </g>
      </g>
      <g class="com.sun.star.drawing.ClosedBezierShape">
       <g id="id4">
        <path fill="rgb(58,58,58)" stroke="none" d="M 8073,11590 L 7838,10850 7972,10850 8094,11277 8140,11437 C 8142,11429 8155,11378 8180,11283 L 8302,10850 8436,10850 8551,11279 8590,11421 8634,11277 8765,10850 8892,10850 8652,11590 8516,11590 8394,11147 8364,11020 8209,11590 8073,11590 Z M 8073,11590 L 8073,11590 Z M 9484,11352 L 9619,11368 C 9597,11444 9558,11503 9501,11545 9443,11586 9370,11607 9281,11607 9168,11607 9079,11574 9013,11507 8947,11441 8914,11346 8914,11226 8914,11101 8948,11005 9014,10936 9081,10868 9167,10833 9273,10833 9376,10833 9460,10867 9525,10934 9590,11001 9623,11096 9623,11218 9623,11226 9623,11237 9622,11252 L 9049,11252 C 9054,11333 9078,11396 9121,11439 9164,11483 9217,11504 9281,11504 9329,11504 9370,11492 9404,11468 9437,11444 9464,11405 9484,11352 Z M 9484,11352 L 9484,11352 Z M 9056,11149 L 9485,11149 C 9480,11086 9463,11040 9436,11009 9395,10960 9341,10936 9275,10936 9215,10936 9165,10955 9124,10994 9083,11033 9061,11084 9056,11149 Z M 9056,11149 L 9056,11149 Z M 10513,11590 L 10513,11482 C 10453,11565 10372,11607 10269,11607 10224,11607 10181,11599 10142,11582 10103,11565 10072,11544 10053,11519 10034,11494 10021,11463 10013,11426 10008,11401 10005,11362 10005,11308 L 10005,10850 10136,10850 10136,11260 C 10136,11326 10139,11371 10144,11393 10153,11426 10170,11452 10196,11471 10223,11490 10256,11499 10295,11499 10334,11499 10371,11490 10405,11470 10439,11451 10464,11425 10478,11392 10492,11358 10499,11309 10499,11246 L 10499,10850 10629,10850 10629,11590 10513,11590 Z M 10513,11590 L 10513,11590 Z M 10746,11590 L 10746,10850 10863,10850 10863,10955 C 10919,10874 11001,10833 11107,10833 11154,10833 11196,10841 11235,10857 11274,10873 11303,10894 11322,10920 11342,10946 11355,10977 11363,11013 11368,11036 11370,11077 11370,11135 L 11370,11590 11240,11590 11240,11139 C 11240,11089 11235,11050 11225,11025 11215,11000 11196,10979 11171,10965 11145,10949 11115,10942 11080,10942 11024,10942 10977,10959 10936,10993 10896,11027 10876,11091 10876,11186 L 10876,11590 10746,11590 Z M 10746,11590 L 10746,11590 Z M 12010,11590 L 12010,11497 C 11962,11570 11890,11607 11795,11607 11734,11607 11678,11591 11626,11558 11575,11526 11535,11481 11507,11422 11478,11364 11464,11296 11464,11220 11464,11147 11477,11080 11503,11019 11528,10959 11567,10913 11618,10881 11669,10849 11726,10833 11790,10833 11836,10833 11877,10843 11913,10861 11949,10880 11979,10905 12002,10935 L 12002,10568 12131,10568 12131,11590 12010,11590 Z M 12010,11590 L 12010,11590 Z M 11598,11220 C 11598,11315 11619,11387 11661,11434 11702,11481 11751,11504 11808,11504 11864,11504 11913,11482 11953,11437 11992,11392 12012,11323 12012,11231 12012,11129 11992,11055 11952,11008 11911,10960 11861,10937 11802,10937 11744,10937 11695,10960 11657,11005 11618,11051 11598,11122 11598,11220 Z M 11598,11220 L 11598,11220 Z M 12819,11352 L 12953,11368 C 12932,11444 12893,11503 12835,11545 12778,11586 12704,11607 12615,11607 12503,11607 12414,11574 12348,11507 12282,11441 12249,11346 12249,11226 12249,11101 12282,11005 12349,10936 12416,10868 12502,10833 12608,10833 12711,10833 12795,10867 12860,10934 12925,11001 12958,11096 12958,11218 12958,11226 12957,11237 12957,11252 L 12384,11252 C 12388,11333 12412,11396 12455,11439 12498,11483 12552,11504 12616,11504 12664,11504 12704,11492 12738,11468 12772,11444 12799,11405 12819,11352 Z M 12819,11352 L 12819,11352 Z M 12391,11149 L 12820,11149 C 12814,11086 12798,11040 12771,11009 12729,10960 12675,10936 12609,10936 12550,10936 12499,10955 12459,10994 12418,11033 12395,11084 12391,11149 Z M 12391,11149 L 12391,11149 Z M 13072,11590 L 13072,10850 13189,10850 13189,10962 C 13219,10910 13247,10875 13272,10858 13297,10842 13325,10833 13356,10833 13400,10833 13444,10847 13489,10873 L 13444,10990 C 13413,10972 13381,10963 13349,10963 13320,10963 13295,10971 13272,10987 13250,11004 13233,11027 13224,11056 13209,11100 13202,11149 13202,11202 L 13202,11590 13072,11590 Z M 13072,11590 L 13072,11590 Z M 13516,11370 L 13644,11350 C 13652,11400 13672,11438 13705,11464 13738,11491 13784,11504 13844,11504 13903,11504 13948,11492 13977,11469 14006,11445 14020,11418 14020,11386 14020,11358 14007,11335 13982,11318 13964,11307 13919,11293 13849,11276 13753,11253 13687,11233 13650,11216 13613,11199 13585,11175 13566,11145 13547,11115 13537,11082 13537,11046 13537,11013 13545,10983 13561,10955 13576,10926 13598,10903 13625,10885 13645,10870 13673,10858 13708,10848 13743,10838 13780,10833 13820,10833 13881,10833 13934,10842 13979,10858 14025,10875 14059,10897 14080,10926 14102,10955 14117,10993 14125,11041 L 13998,11057 C 13992,11019 13975,10990 13947,10968 13920,10947 13880,10936 13830,10936 13770,10936 13727,10946 13702,10965 13676,10984 13663,11006 13663,11032 13663,11048 13669,11062 13679,11076 13690,11089 13706,11100 13729,11109 13742,11114 13781,11124 13844,11141 13936,11165 14001,11184 14037,11199 14074,11214 14102,11236 14123,11265 14144,11294 14154,11329 14154,11373 14154,11415 14141,11454 14116,11491 14091,11528 14054,11557 14006,11577 13959,11597 13905,11607 13844,11607 13744,11607 13668,11587 13616,11547 13563,11507 13530,11448 13516,11370 Z M 13516,11370 L 13516,11370 Z M 14566,11478 L 14584,11589 C 14547,11596 14514,11600 14485,11600 14438,11600 14401,11593 14375,11579 14349,11564 14331,11545 14320,11522 14309,11498 14304,11449 14304,11374 L 14304,10947 14208,10947 14208,10850 14304,10850 14304,10666 14434,10591 14434,10850 14566,10850 14566,10947 14434,10947 14434,11381 C 14434,11417 14436,11440 14440,11450 14445,11460 14452,11468 14463,11474 14473,11480 14488,11483 14507,11483 14522,11483 14541,11482 14566,11478 Z M 14566,11478 L 14566,11478 Z M 15181,11499 C 15132,11539 15086,11566 15041,11583 14997,11599 14949,11607 14898,11607 14813,11607 14748,11587 14703,11548 14658,11508 14635,11457 14635,11396 14635,11359 14643,11325 14661,11295 14678,11265 14700,11241 14728,11223 14756,11205 14787,11191 14822,11182 14847,11176 14886,11169 14937,11163 15043,11151 15120,11137 15170,11120 15170,11103 15171,11092 15171,11087 15171,11036 15158,11000 15134,10979 15100,10951 15051,10937 14985,10937 14924,10937 14879,10947 14849,10968 14820,10989 14799,11025 14785,11078 L 14657,11061 C 14669,11008 14688,10966 14714,10934 14741,10902 14779,10877 14830,10859 14880,10842 14938,10833 15004,10833 15070,10833 15123,10841 15164,10855 15205,10870 15235,10889 15255,10912 15274,10934 15287,10962 15295,10997 15299,11018 15302,11057 15302,11112 L 15302,11279 C 15302,11397 15304,11471 15310,11502 15315,11532 15327,11562 15343,11590 L 15207,11590 C 15193,11565 15184,11534 15181,11499 Z M 15181,11499 L 15181,11499 Z M 15170,11218 C 15122,11237 15051,11253 14957,11266 14904,11273 14865,11281 14843,11291 14821,11300 14804,11313 14792,11332 14780,11350 14774,11370 14774,11392 14774,11425 14787,11453 14813,11476 14840,11498 14878,11509 14929,11509 14979,11509 15024,11498 15063,11477 15102,11456 15131,11427 15149,11391 15163,11362 15170,11319 15170,11264 L 15170,11218 Z M 15170,11218 L 15170,11218 Z M 15416,11590 L 15416,10850 15533,10850 15533,10955 C 15589,10874 15671,10833 15777,10833 15824,10833 15866,10841 15905,10857 15944,10873 15973,10894 15992,10920 16012,10946 16025,10977 16033,11013 16038,11036 16040,11077 16040,11135 L 16040,11590 15910,11590 15910,11139 C 15910,11089 15905,11050 15895,11025 15885,11000 15866,10979 15841,10965 15815,10949 15785,10942 15750,10942 15694,10942 15647,10959 15606,10993 15566,11027 15546,11091 15546,11186 L 15546,11590 15416,11590 Z M 15416,11590 L 15416,11590 Z M 16680,11590 L 16680,11497 C 16632,11570 16560,11607 16465,11607 16404,11607 16348,11591 16296,11558 16245,11526 16205,11481 16177,11422 16148,11364 16134,11296 16134,11220 16134,11147 16147,11080 16173,11019 16198,10959 16237,10913 16288,10881 16339,10849 16396,10833 16460,10833 16506,10833 16547,10843 16583,10861 16619,10880 16649,10905 16672,10935 L 16672,10568 16801,10568 16801,11590 16680,11590 Z M 16680,11590 L 16680,11590 Z M 16268,11220 C 16268,11315 16289,11387 16331,11434 16372,11481 16421,11504 16478,11504 16534,11504 16583,11482 16623,11437 16662,11392 16682,11323 16682,11231 16682,11129 16662,11055 16622,11008 16581,10960 16531,10937 16472,10937 16414,10937 16365,10960 16327,11005 16288,11051 16268,11122 16268,11220 Z"/>
       </g>
      </g>
     </g>
    </g>
   </g>
  </g>
 </g>
</svg>